{"title":"Bates Motel S02E01 HDTV x264 AAC E-Subs [GWC].mp4","uid":9694773,"size":147638790,"categoryP":"video","categoryS":"tv_shows","magnet":"?xt=urn:btih:0fca770297e084d1526e74e839faba4a300f8a4f&amp;dn=Bates+Motel+S02E01+HDTV+x264+AAC+E-Subs+%5BGWC%5D.mp4&amp;tr=udp%3A%2F%2Ftracker.openbittorrent.com%3A80&amp;tr=udp%3A%2F%2Fopen.demonii.com%3A1337&amp;tr=udp%3A%2F%2Ftracker.coppersurfer.tk%3A6969&amp;tr=udp%3A%2F%2Fexodus.desync.com%3A6969","seeders":3,"leechers":0,"uploader":"canc232","files":1,"time":1393920283,"description":"Bates Motel S02E01 HDTV x264 AAC E-Subs [GWC] \n\nStoryline\n&quot;Bates Motel&quot; is a contemporary prequel to the genre-defining film &quot;Psycho,&quot; and gives a portrayal of how Norman Bates' psyche unravels through his teenage years. Fans discover the dark, twisted backstory of Norman Bates and how deeply intricate his relationship with his mother, Norma, truly is. \n\n\nSCREENS : &lt;a href=&quot;\nhttp://i.imgur.com/laSxQmU.jpg&quot; rel=&quot;nofollow&quot; target=&quot;_NEW&quot;&gt;\nhttp://i.imgur.com/laSxQmU.jpg&lt;/a&gt; &lt;a href=&quot;\nhttp://i.imgur.com/NELEwyy.jpg&quot; rel=&quot;nofollow&quot; target=&quot;_NEW&quot;&gt;\nhttp://i.imgur.com/NELEwyy.jpg&lt;/a&gt; &lt;a href=&quot;\nhttp://i.imgur.com/hWFJdjV.jpg&quot; rel=&quot;nofollow&quot; target=&quot;_NEW&quot;&gt;\nhttp://i.imgur.com/hWFJdjV.jpg&lt;/a&gt;\n\n\nMEDIA INFO :\nGeneral \nFormat : MPEG-4 \nFormat profile : Base Media \nFile size : 141 MiB \nDuration : 42mn 0s \nOverall bit rate : 469 Kbps \n\nVideo\nFormat : AVC \nFormat profile : &lt;a class=&quot;__cf_email__&quot; href=&quot;/cdn-cgi/l/email-protection&quot; data-cfemail=&quot;5018393738101c637e60&quot;&gt;[email&amp;#160;protected]&lt;/a&gt;&lt;script cf-hash='f9e31' type=&quot;text/javascript&quot;&gt;\n/* &lt;![CDATA[ */!function(){try{var t=&quot;currentScript&quot;in document?document.currentScript:function(){for(var t=document.getElementsByTagName(&quot;script&quot;),e=t.length;e--;)if(t[e].getAttribute(&quot;cf-hash&quot;))return t[e]}();if(t&amp;&amp;t.previousSibling){var e,r,n,i,c=t.previousSibling,a=c.getAttribute(&quot;data-cfemail&quot;);if(a){for(e=&quot;&quot;,r=parseInt(a.substr(0,2),16),n=2;a.length-n;n+=2)i=parseInt(a.substr(n,2),16)^r,e+=String.fromCharCode(i);e=document.createTextNode(e),c.parentNode.replaceChild(e,c)}}}catch(u){}}();/* ]]&gt; */&lt;/script&gt; \nFormat settings, CABAC : Yes \nFormat settings, ReFrames : 4 frames \nDuration : 42mn 0s \nBit rate : 405 Kbps \nMaximum bit rate : 1 938 Kbps \nWidth : 720 pixels \nHeight : 404 pixels \nDisplay aspect ratio : 16:9 \nFrame rate mode : Constant \nFrame rate : 23.976 fps\nStream size : 122 MiB (86%) \nTitle : Bates Motel S02E01 HDTV x264 AAC E-Subs [GWC] \nWriting library : x264 core\n\nAudio \nFormat : AAC  \nFormat profile : HE-AAC / LC\nDuration : 42mn 0s \nBit rate mode : Variable \nChannel(s) : 2 channels \nSampling rate : 48.0 KHz / 24.0 KHz\nStream size : 18.0 MiB (13%) \nLanguage : English \n\nText \nFormat : Timed Text\nDuration : 41mn 41s \nBit rate mode : Variable  \nTitle : English Subtitle by honeybunny \nLanguage : English ","torrent":{"xt":"urn:btih:0fca770297e084d1526e74e839faba4a300f8a4f","amp;dn":"Bates+Motel+S02E01+HDTV+x264+AAC+E-Subs+%5BGWC%5D.mp4","amp;tr":["udp%3A%2F%2Ftracker.openbittorrent.com%3A80","udp%3A%2F%2Fopen.demonii.com%3A1337","udp%3A%2F%2Ftracker.coppersurfer.tk%3A6969","udp%3A%2F%2Fexodus.desync.com%3A6969"],"infoHash":"0fca770297e084d1526e74e839faba4a300f8a4f","infoHashBuffer":{"type":"Buffer","data":[15,202,119,2,151,224,132,209,82,110,116,232,57,250,186,74,48,15,138,79]},"announce":[],"urlList":[]}}